<svg id="Layer_1" data-name="Layer 1" xmlns="http://www.w3.org/2000/svg" viewBox="0 0 50 50"><defs><style>.cls-1{font-size:6px;font-family:ArialMT, Arial;}.cls-2,.cls-3{fill:none;stroke:#000;}.cls-2{stroke-miterlimit:10;}.cls-3{stroke-linecap:round;stroke-linejoin:round;}</style></defs><text class="cls-1" transform="translate(4.66 36.76)">DEHYDRATED<tspan x="13.44" y="6">SKIN</tspan></text><circle class="cls-2" cx="25" cy="17.79" r="12.5"/><line class="cls-3" x1="14.58" y1="17.79" x2="35.42" y2="17.79"/><line class="cls-3" x1="25" y1="28.47" x2="25" y2="19.36"/><line class="cls-3" x1="21.49" y1="19.36" x2="21.49" y2="26.36"/><line class="cls-3" x1="17.97" y1="19.29" x2="17.97" y2="22.58"/><line class="cls-3" x1="28.51" y1="19.36" x2="28.51" y2="26.36"/><line class="cls-3" x1="32.03" y1="19.29" x2="32.03" y2="22.58"/><path class="cls-2" d="M26.28,13.48a1.28,1.28,0,1,1-2.56,0,11.22,11.22,0,0,1,1.07-2.76.24.24,0,0,1,.42,0A11.22,11.22,0,0,1,26.28,13.48Z"/></svg>